<svg xmlns="http://www.w3.org/2000/svg" xmlns:xlink="http://www.w3.org/1999/xlink" width="159" height="78.31" viewBox="0 0 159 78.31"><defs><clipPath id="b"><rect width="159" height="78.31"/></clipPath></defs><g id="a" clip-path="url(#b)"><g transform="translate(-3.64 -3.99)"><path d="M326.13,108.4V78c0-10.389,10.824-12.563,18.587-9.622v5.8c-5.357-2.187-11.371-1.64-11.371,5.032h8.64v5.8h-8.64V108.3Z" transform="translate(-218.604 -42.832)" fill="#121212"/><path d="M432.82,90.6h5.36l1.092,4.484h6.671v5.8h-5.9v13.449c0,2.735,1.2,4.046,3.5,4.046h3.717v5.8h-7.216c-4.813,0-7.329-2.625-7.329-7.763V90.6Z" transform="translate(-290.851 -58.71)" fill="#121212"/><rect width="7.325" height="29.086" transform="translate(129.067 36.374)" fill="#121212"/><rect width="7.325" height="6.014" transform="translate(129.067 25.876)" fill="#121212"/><path d="M368.355,194.81a36.253,36.253,0,0,1-61.235,0c7.544,7,18.478,11.275,30.6,11.275,12.138.11,23.075-4.265,30.6-11.275" transform="translate(-205.718 -129.35)" fill="#121212"/><path d="M4.516,129.693v-3.937a19.022,19.022,0,0,0,7.329,1.327c2.078,0,3.06-.644,3.06-1.968,0-1.2-.644-1.859-2.078-1.859H9.438c-3.827,0-5.8-1.968-5.8-5.8,0-3.94,2.841-5.908,8.421-5.908a20,20,0,0,1,6.765,1.1v3.937a17.556,17.556,0,0,0-6.887-1.311c-2.625,0-3.827.644-3.827,1.968,0,1.2.763,1.859,2.294,1.859h3.08c4.156,0,6.343,1.968,6.343,5.8,0,3.937-2.735,5.9-8.092,5.9a24.362,24.362,0,0,1-7.215-1.094M23,130.582V111.65h3.717l.548,2.406a10.775,10.775,0,0,1,6.443-2.406c2.406,0,4.046.876,5.029,2.625A11.829,11.829,0,0,1,45.5,111.65c4.046,0,6.014,2.406,6.014,7.219v11.7H46.726V118.65c0-2.078-.873-3.173-2.622-3.173-1.424,0-2.954.767-4.484,2.406v12.686H34.807V118.65c0-2.187-.873-3.173-2.622-3.173a5.992,5.992,0,0,0-4.484,2.406v12.686Zm32.149-5.9c0-3.937,2.735-5.8,8.2-5.8a25.475,25.475,0,0,1,4.375.322V118c0-1.64-1.643-2.516-4.922-2.516a22.981,22.981,0,0,0-6.121.876v-3.83a24.311,24.311,0,0,1,6.121-.876c6.443,0,9.732,2.078,9.732,6.233v12.686H70.116l-2.078-1.311a11,11,0,0,1-5.248,1.311c-5.128,0-7.644-1.968-7.644-5.9Zm12.563-1.859a24.6,24.6,0,0,0-4.375-.322c-2.3,0-3.5.767-3.5,2.187s.983,2.187,2.841,2.187a8,8,0,0,0,4.922-1.533v-2.513Zm9.513,7.764V111.65H80.94l.548,2.406a7.294,7.294,0,0,1,5.248-2.406v3.837a6.258,6.258,0,0,0-4.81,2.406v12.686ZM89.689,108.6h3.5l.763,3.06h4.375v3.824H94.512v8.749q0,2.625,2.3,2.625h1.53v3.827H94.4c-3.17,0-4.81-1.749-4.81-5.154V108.59Z" transform="translate(0 -70.904)" fill="#121212"/><rect width="77.242" height="21.886" transform="translate(3.643 3.99)" fill="#121212"/><path d="M29.907,27.549V31.84a6.639,6.639,0,0,1-3.766,1.005,4.811,4.811,0,0,1-3.473-1.24,4.405,4.405,0,0,1-1.289-3.353,4.619,4.619,0,0,1,.354-1.794,4.51,4.51,0,0,1,.992-1.475,4.578,4.578,0,0,1,1.562-1,5.5,5.5,0,0,1,2.033-.367A5.2,5.2,0,0,1,29.746,24.7l-1.437,1.372a3.221,3.221,0,0,0-2.039-.619,2.107,2.107,0,0,0-1.691.77,2.986,2.986,0,0,0-.644,2,3.1,3.1,0,0,0,.609,2.023,1.968,1.968,0,0,0,1.611.76,3.157,3.157,0,0,0,1.356-.251V29.334L25.935,29.2V27.549Z" transform="translate(-12.025 -13.306)" fill="#fff"/><path d="M70.866,24.231a4.468,4.468,0,0,1,2.88.889,2.774,2.774,0,0,1,1.1,2.255,2.484,2.484,0,0,1-.5,1.524,3.418,3.418,0,0,1-1.385,1.066l2.2,3.1H72.228l-1.533-2.532h-1.14v2.532H67V24.231Zm-1.321,4.51H70.73a1.611,1.611,0,0,0,1.121-.37,1.269,1.269,0,0,0,.4-.966,1.289,1.289,0,0,0-.38-1,1.546,1.546,0,0,0-1.1-.361H69.555Z" transform="translate(-42.949 -13.717)" fill="#fff"/><path d="M112.577,24.24v5.251A2.2,2.2,0,0,0,113,30.957a1.52,1.52,0,0,0,1.214.486q1.611,0,1.611-1.933V24.24H118.4v5.251a3.554,3.554,0,0,1-1.1,2.8,4.458,4.458,0,0,1-3.093.966,4.542,4.542,0,0,1-3.1-.966A3.528,3.528,0,0,1,110,29.517V24.24Z" transform="translate(-72.098 -13.727)" fill="#fff"/><path d="M159.538,24.229a4.59,4.59,0,0,1,2.944.889,2.819,2.819,0,0,1,1.124,2.313,2.719,2.719,0,0,1-.322,1.334,3.118,3.118,0,0,1-.912,1.024,4.574,4.574,0,0,1-1.347.644,5.734,5.734,0,0,1-1.633.229H158.3v2.4H155.74V24.229Zm-1.253,4.645h1.108a1.862,1.862,0,0,0,1.227-.37,1.289,1.289,0,0,0,.441-1.041,1.324,1.324,0,0,0-.428-1.057,1.775,1.775,0,0,0-1.2-.374h-1.144Z" transform="translate(-103.103 -13.715)" fill="#fff"/><path d="M201.615,23.656a4.954,4.954,0,0,1,2.513.609,3.959,3.959,0,0,1,1.585,1.64,5.106,5.106,0,0,1,.528,2.371,4.919,4.919,0,0,1-.548,2.3,4.11,4.11,0,0,1-1.611,1.662,4.813,4.813,0,0,1-2.487.628,4.909,4.909,0,0,1-2.484-.609,4.023,4.023,0,0,1-1.611-1.646A5.009,5.009,0,0,1,197,28.276a4.951,4.951,0,0,1,.541-2.326,4.1,4.1,0,0,1,1.611-1.659A4.832,4.832,0,0,1,201.615,23.656Zm0,1.8a1.752,1.752,0,0,0-1.533.773,3.524,3.524,0,0,0-.532,2.049,3.543,3.543,0,0,0,.532,2.036,1.752,1.752,0,0,0,1.533.773,1.788,1.788,0,0,0,1.15-.377,2.165,2.165,0,0,0,.693-1,4.256,4.256,0,0,0,.219-1.434,3.566,3.566,0,0,0-.522-2.052A1.752,1.752,0,0,0,201.615,25.454Z" transform="translate(-131.067 -13.33)" fill="#fff"/></g></g></svg>