<svg xmlns="http://www.w3.org/2000/svg" xmlns:xlink="http://www.w3.org/1999/xlink" width="90" height="92" viewBox="0 0 90 92"><defs><clipPath id="b"><rect width="90" height="92"/></clipPath></defs><g id="a" clip-path="url(#b)"><g transform="translate(-30.025 -29.098)"><path d="M120,76.1a57.409,57.409,0,0,0-.8-9.3H75.9V84.5h24.8a20.863,20.863,0,0,1-9.2,13.9l14.8,11.5C115,101.8,120,90,120,76.1Z" fill="#4280ef"/><path d="M75.9,120.9c12.4,0,22.8-4.1,30.4-11.1L91.5,98.4a27.347,27.347,0,0,1-15.6,4.4c-12,0-22.1-8.1-25.8-18.9L34.9,95.6A45.854,45.854,0,0,0,75.9,120.9Z" fill="#34a353"/><path d="M50.1,83.8a27.884,27.884,0,0,1,0-17.6L34.9,54.4a45.961,45.961,0,0,0,0,41.2Z" fill="#f6b704"/><path d="M75.9,47.3a25.042,25.042,0,0,1,17.6,6.9L106.6,41A44.173,44.173,0,0,0,75.9,29.1a45.854,45.854,0,0,0-41,25.3L50.1,66.2A27.458,27.458,0,0,1,75.9,47.3Z" fill="#e54335"/></g></g></svg>